<mxfile host="app.diagrams.net" modified="2023-03-04T10:11:40.180Z" agent="5.0 (Windows NT 10.0; Win64; x64) AppleWebKit/537.36 (KHTML, like Gecko) Chrome/110.0.0.0 Safari/537.36" etag="4Eo1AjXnRStdBnfQKFdv" version="21.0.2" type="github">
  <diagram name="Page-1" id="pz5wxpfWra8d3dVlswVs">
    <mxGraphModel dx="1050" dy="483" grid="1" gridSize="10" guides="1" tooltips="1" connect="1" arrows="1" fold="1" page="1" pageScale="1" pageWidth="827" pageHeight="1169" math="0" shadow="0">
      <root>
        <mxCell id="0" />
        <mxCell id="1" parent="0" />
        <mxCell id="aALfYJHICQ1_0nXAcZzO-1" style="edgeStyle=orthogonalEdgeStyle;rounded=0;html=1;exitX=0.5;exitY=1;exitPerimeter=0;entryX=0.5;entryY=0;entryPerimeter=0;jettySize=auto;orthogonalLoop=1;" edge="1" parent="1" source="aALfYJHICQ1_0nXAcZzO-2">
          <mxGeometry relative="1" as="geometry">
            <mxPoint x="414" y="150" as="targetPoint" />
          </mxGeometry>
        </mxCell>
        <mxCell id="aALfYJHICQ1_0nXAcZzO-2" value="&lt;font style=&quot;font-size: 20px&quot;&gt;START&lt;/font&gt;" style="strokeWidth=2;html=1;shape=mxgraph.flowchart.start_1;whiteSpace=wrap;" vertex="1" parent="1">
          <mxGeometry x="364" y="40" width="100" height="60" as="geometry" />
        </mxCell>
        <mxCell id="aALfYJHICQ1_0nXAcZzO-3" value="&lt;font style=&quot;font-size: 20px&quot;&gt;code body&lt;/font&gt;" style="rounded=0;whiteSpace=wrap;html=1;" vertex="1" parent="1">
          <mxGeometry x="330" y="150" width="170" height="60" as="geometry" />
        </mxCell>
        <mxCell id="aALfYJHICQ1_0nXAcZzO-4" value="&lt;font style=&quot;font-size: 20px&quot;&gt;END&lt;/font&gt;" style="strokeWidth=2;html=1;shape=mxgraph.flowchart.start_1;whiteSpace=wrap;" vertex="1" parent="1">
          <mxGeometry x="365" y="260" width="100" height="60" as="geometry" />
        </mxCell>
        <mxCell id="aALfYJHICQ1_0nXAcZzO-5" style="edgeStyle=orthogonalEdgeStyle;rounded=0;html=1;exitX=0.5;exitY=1;exitPerimeter=0;entryX=0.5;entryY=0;entryPerimeter=0;jettySize=auto;orthogonalLoop=1;" edge="1" parent="1">
          <mxGeometry relative="1" as="geometry">
            <mxPoint x="417" y="210" as="sourcePoint" />
            <mxPoint x="417" y="260" as="targetPoint" />
          </mxGeometry>
        </mxCell>
      </root>
    </mxGraphModel>
  </diagram>
</mxfile>
